<?xml version="1.0" encoding="UTF-8" standalone="no"?>
<svg width="18px" height="12px" viewBox="0 0 18 12" version="1.1" xmlns="http://www.w3.org/2000/svg" xmlns:xlink="http://www.w3.org/1999/xlink">
    <!-- Generator: sketchtool 39 (31667) - http://www.bohemiancoding.com/sketch -->
    <title>398D9467-3862-4696-94F9-AE5DCC9F693C</title>
    <desc>Created with sketchtool.</desc>
    <defs></defs>
    <g id="Page-1" stroke="none" stroke-width="1" fill="none" fill-rule="evenodd">
        <g id="Шапка-и-прочее" transform="translate(-902.000000, -19.000000)" fill="#0D0D0D">
            <g id="Group-42">
                <g id="Звонок" transform="translate(889.000000, 10.000000)">
                    <g id="Письмо" transform="translate(13.000000, 9.000000)">
                        <g id="Group-16">
                            <path d="M1.4589871,0.580645161 C0.978793548,0.580645161 0.588019355,0.971419355 0.588019355,1.4516129 L0.588019355,10.1612903 C0.588019355,10.6414839 0.978793548,11.0322581 1.4589871,11.0322581 L15.9675677,11.0322581 C16.4477613,11.0322581 16.8385355,10.6414839 16.8385355,10.1612903 L16.8385355,1.4516129 C16.8385355,0.971419355 16.4477613,0.580645161 15.9675677,0.580645161 L1.4589871,0.580645161 Z M15.9675677,11.6129032 L1.4589871,11.6129032 C0.658277419,11.6129032 0.00737419355,10.9614194 0.00737419355,10.1612903 L0.00737419355,1.4516129 C0.00737419355,0.651483871 0.658277419,0 1.4589871,0 L15.9675677,0 C16.7682774,0 17.4191806,0.651483871 17.4191806,1.4516129 L17.4191806,10.1612903 C17.4191806,10.9614194 16.7682774,11.6129032 15.9675677,11.6129032 L15.9675677,11.6129032 Z" id="Fill-124"></path>
                            <path d="M8.5662,6.38593548 C8.14174839,6.38593548 7.71613548,6.27270968 7.3845871,6.04625806 L1.86845806,2.27206452 C1.73607097,2.18148387 1.70239355,2.00090323 1.79239355,1.86851613 C1.88355484,1.73612903 2.06587742,1.70303226 2.19594194,1.79245161 L7.71207097,5.56664516 C8.1818129,5.88832258 8.94710323,5.88832258 9.41684516,5.56664516 L15.2291032,1.78896774 C15.362071,1.70129032 15.5432323,1.7396129 15.630329,1.87432258 C15.7174258,2.00845161 15.6796839,2.18845161 15.5455548,2.27554839 L9.73910323,6.04974194 C9.41161935,6.27387097 8.98949032,6.38593548 8.5662,6.38593548" id="Fill-125"></path>
                            <path d="M2.03225806,9.87096774 C1.9503871,9.87096774 1.86967742,9.83670968 1.8116129,9.76935484 C1.70709677,9.648 1.7216129,9.46451613 1.84354839,9.36058065 L5.90806452,5.87670968 C6.02941935,5.77219355 6.21232258,5.78554839 6.31741935,5.90806452 C6.42193548,6.02941935 6.40741935,6.21290323 6.28548387,6.31683871 L2.22096774,9.80070968 C2.1663871,9.84774194 2.09903226,9.87096774 2.03225806,9.87096774" id="Fill-126"></path>
                            <path d="M15.1983871,9.80070968 L11.133871,6.31683871 C11.0119355,6.21290323 10.9974194,6.02941935 11.1019355,5.90806452 C11.2070323,5.78554839 11.3905161,5.77219355 11.5112903,5.87670968 L15.5758065,9.36058065 C15.6977419,9.46451613 15.7122581,9.648 15.6077419,9.76935484 C15.5496774,9.83670968 15.4689677,9.87096774 15.3870968,9.87096774 C15.3203226,9.87096774 15.2529677,9.84774194 15.1983871,9.80070968 Z" id="Fill-127"></path>
                        </g>
                    </g>
                </g>
            </g>
        </g>
    </g>
</svg>